<svg width="13" height="10" viewBox="0 0 13 10" fill="none" xmlns="http://www.w3.org/2000/svg">
<path d="M5.2803 1.34449C5.5732 1.0516 5.5732 0.576721 5.2803 0.283831C4.9874 -0.0090593 4.5126 -0.0090593 4.21967 0.283831L0.21967 4.28386C0.0732198 4.43026 0 4.62226 0 4.81416C0 4.91586 0.02024 5.01286 0.05691 5.10126C0.09351 5.18966 0.14776 5.27256 0.21967 5.34446L4.21967 9.34446C4.5126 9.63736 4.9874 9.63736 5.2803 9.34446C5.5732 9.05156 5.5732 8.57676 5.2803 8.28386L2.56066 5.56416H12.25C12.6642 5.56416 13 5.22836 13 4.81416C13 4.39996 12.6642 4.06416 12.25 4.06416H2.56066L5.2803 1.34449Z" fill="black"/>
</svg>
