<svg width="83" height="83" viewBox="0 0 83 83" fill="none" xmlns="http://www.w3.org/2000/svg">
<path fill-rule="evenodd" clip-rule="evenodd" d="M41.5 6.625C27.9942 6.625 17.5166 15.0834 15.7285 25.375H24.8333C26.5592 25.375 27.9583 26.7741 27.9583 28.5V57.6667C27.9583 59.3925 26.5592 60.7917 24.8333 60.7917H12.3333C6.00508 60.7917 0.875 55.6617 0.875 49.3333V36.8333C0.875 31.5348 4.47129 27.0763 9.35612 25.7656C10.9455 11.165 25.1408 0.375 41.5 0.375C57.8592 0.375 72.0546 11.165 73.6437 25.7656C78.5287 27.0763 82.125 31.5348 82.125 36.8333V49.3333C82.125 54.6467 78.5088 59.1154 73.6029 60.4121C72.2663 70.0433 63.9992 77.4583 54 77.4583H49.2275C47.9912 80.5125 44.9971 82.6667 41.5 82.6667C36.8975 82.6667 33.1667 78.9358 33.1667 74.3333C33.1667 69.7308 36.8975 66 41.5 66C44.9971 66 47.9912 68.1542 49.2275 71.2083H54C60.4033 71.2083 65.7687 66.7642 67.1796 60.7917H58.1667C56.4408 60.7917 55.0417 59.3925 55.0417 57.6667V28.5C55.0417 26.7741 56.4408 25.375 58.1667 25.375H67.2717C65.4833 15.0834 55.0058 6.625 41.5 6.625ZM12.3333 31.625C9.45683 31.625 7.125 33.9567 7.125 36.8333V49.3333C7.125 52.21 9.45683 54.5417 12.3333 54.5417H21.7083V31.625H12.3333ZM75.875 36.8333C75.875 33.9567 73.5433 31.625 70.6667 31.625H61.2917V54.5417H70.6667C73.5433 54.5417 75.875 52.21 75.875 49.3333V36.8333Z" fill="#0696AC"/>
</svg>
