<svg width="99" height="72" viewBox="0 0 99 72" fill="none" xmlns="http://www.w3.org/2000/svg">
<path fill-rule="evenodd" clip-rule="evenodd" d="M87.9816 2.02882V3.79075H91.6018H95.2219L95.1655 2.08213L95.109 0.373506L91.5453 0.320196L87.9816 0.267083V2.02882ZM6.44491 5.1225C4.41038 6.82156 2.44751 8.55264 2.08294 8.96915C1.15833 10.0258 0.652384 11.2788 0.54518 12.7775C0.45887 13.9827 0.557677 14.3717 2.23428 19.4293C3.21356 22.3837 4.01496 25.0177 4.01496 25.2829C4.01496 25.5479 3.34732 28.0921 2.53109 30.9364C1.71505 33.7809 0.924592 36.8551 0.774428 37.768C0.559044 39.0786 0.501439 42.3467 0.500853 53.3061C0.499877 69.2024 0.417277 68.3684 2.16535 70.1164C3.78356 71.7344 3.85679 71.7452 13.3259 71.7452C19.1352 71.7452 21.3941 71.6841 21.3941 71.5273C21.3941 71.4074 21.1194 70.1826 20.7837 68.8058L20.1733 66.3024L15.4625 66.2411L10.7518 66.1799L9.2244 65.4506C6.57555 64.1858 4.74625 61.8131 4.22663 58.9678C4.09072 58.2244 4.01496 53.8648 4.01496 46.8026C4.01496 37.3673 4.05713 35.7145 4.30982 35.2255C4.64412 34.5792 5.14714 34.2529 5.80833 34.2535C6.0571 34.2539 9.53762 35.4401 13.5426 36.8896C17.5478 38.3393 20.887 39.5242 20.9629 39.5229C21.0391 39.5217 21.3923 38.4916 21.7483 37.2341C23.0576 32.6083 25.7406 26.6334 28.5117 22.1716C29.9005 19.9356 32.5201 16.4287 34.6481 13.9568C36.1963 12.1583 36.2347 12.089 36.2347 11.0923V10.0711L31.4105 6.05219L26.5862 2.03331H18.3651H10.1439L6.44491 5.1225ZM22.0951 6.13518C25.1335 6.90572 27.5947 8.58935 28.516 10.5276C29.4461 12.4842 29.0288 14.8138 27.436 16.5566C24.23 20.0643 16.9392 20.969 11.8545 18.4898C10.4331 17.7966 8.83484 16.2905 8.22735 15.0716C7.52535 13.6627 7.52593 11.8828 8.22852 10.4727C9.19316 8.53721 11.684 6.83874 14.6143 6.11858C16.6443 5.61986 20.0928 5.62748 22.0951 6.13518ZM84.5036 17.5111C82.8593 23.0138 81.5191 27.5791 81.5258 27.656C81.5324 27.7328 82.0106 28.5236 82.5886 29.4135C83.8653 31.3787 85.646 34.9008 86.5655 37.2798C88.5959 42.5334 89.4995 47.043 89.676 52.8039C89.8517 58.5444 89.1191 63.4956 87.2859 68.9553C86.8092 70.3744 86.4194 71.5825 86.4194 71.6403C86.4194 71.6979 88.1169 71.7452 90.1917 71.7452C94.885 71.7452 95.5997 71.5755 97.0485 70.118C98.8379 68.3178 98.7215 69.9735 98.7215 46.3265V25.6393L97.1582 17.0095C96.2984 12.263 95.5498 8.18182 95.4947 7.94027C95.3949 7.50228 95.3818 7.50091 91.444 7.50345L87.4934 7.50599L84.5036 17.5111ZM16.1218 9.38078C11.1656 10.337 9.63623 13.412 13.2148 15.2253C14.6932 15.9745 16.2137 16.2881 18.3674 16.2881C21.4869 16.2881 24.1017 15.3789 25.05 13.9648C25.6004 13.1437 25.6125 12.5217 25.0945 11.6832C24.2146 10.2597 22.0295 9.44288 18.8556 9.3513C17.6205 9.31576 16.3903 9.32904 16.1218 9.38078ZM7.72511 48.6735V58.7805L8.23047 59.7948C8.50854 60.3527 9.08986 61.1121 9.52258 61.4823C10.8379 62.6082 11.604 62.7627 15.8738 62.7627H19.657L19.5004 61.0541C19.4142 60.1144 19.3512 56.9729 19.3604 54.0731C19.3742 49.6746 19.4484 48.3355 19.8077 45.9936C20.0446 44.4498 20.2065 43.1543 20.1672 43.1153C20.11 43.0581 15.7293 41.4551 8.45738 38.8306L7.72511 38.5664V48.6735Z" fill="black"/>
</svg>
