<svg width="101" height="100" viewBox="0 0 101 100" fill="none" xmlns="http://www.w3.org/2000/svg">
<path fill-rule="evenodd" clip-rule="evenodd" d="M14.7549 1.77853V3.53597H18.3674H21.9799V1.77853V0.0210893H18.3674H14.7549V1.77853ZM71.9694 1.05251V2.10502L73.1873 2.44363C76.7945 3.44654 79.8689 6.03916 81.6029 9.54057L82.2073 10.761H91.2456C101.58 10.761 100.59 10.9869 99.8772 8.7917C99.2402 6.82903 98.189 5.11474 96.7745 3.73124C95.2678 2.25773 93.8626 1.3753 91.8548 0.641857L90.4225 0.118725L81.1959 0.0593625L71.9694 0V1.05251ZM12.4548 8.47185L11.24 9.69757V11.108V12.5185H18.3674H25.4948V11.0971V9.67569L24.2691 8.46091L23.0434 7.24613H18.3565H13.6696L12.4548 8.47185ZM75.1923 10.1699C74.9313 11.7141 73.6405 13.934 72.2431 15.2411L70.9583 16.443L71.9032 17.8954C72.4228 18.6943 72.9211 19.349 73.0104 19.3504C73.0996 19.3518 73.9377 18.5842 74.8727 17.6443C76.1427 16.3676 76.7758 15.5407 77.3762 14.3735C78.1966 12.7791 78.8039 11.0299 78.8039 10.2617C78.8039 9.79032 78.5863 9.71592 76.5305 9.48394L75.331 9.34842L75.1923 10.1699ZM43.2645 14.2759V17.7908H50.4895H57.7146V14.2759V10.761H50.4895H43.2645V14.2759ZM87.9816 16.0288V17.7908H91.6018H95.2219L95.1655 16.0822L95.109 14.3735L91.5453 14.3202L87.9816 14.2671V16.0288ZM6.44491 19.1225C4.41038 20.8216 2.44751 22.5527 2.08294 22.9692C1.15833 24.0258 0.652384 25.2789 0.54518 26.7776C0.45887 27.9828 0.557677 28.3718 2.23428 33.4293C3.21356 36.3837 4.01496 39.0177 4.01496 39.2829C4.01496 39.5479 3.34732 42.0921 2.53109 44.9364C1.71505 47.7809 0.924592 50.8551 0.774428 51.768C0.559044 53.0787 0.501439 56.3467 0.500853 67.3061C0.499877 83.2024 0.417277 82.3684 2.16535 84.1164C3.78356 85.7345 3.85679 85.7452 13.3259 85.7452C19.1352 85.7452 21.3941 85.6841 21.3941 85.5273C21.3941 85.4074 21.1194 84.1826 20.7837 82.8058L20.1733 80.3024L15.4625 80.2411L10.7518 80.18L9.2244 79.4506C6.57555 78.1859 4.74625 75.8131 4.22663 72.9678C4.09072 72.2244 4.01496 67.8648 4.01496 60.8026C4.01496 51.3673 4.05713 49.7145 4.30982 49.2256C4.64412 48.5792 5.14714 48.2529 5.80833 48.2535C6.0571 48.2539 9.53762 49.4402 13.5426 50.8897C17.5478 52.3394 20.887 53.5243 20.9629 53.5229C21.0391 53.5217 21.3923 52.4917 21.7483 51.2341C23.0576 46.6083 25.7406 40.6334 28.5117 36.1717C29.9005 33.9356 32.5201 30.4287 34.6481 27.9568C36.1963 26.1584 36.2347 26.089 36.2347 25.0924V24.0711L31.4105 20.0522L26.5862 16.0333H18.3651H10.1439L6.44491 19.1225ZM22.0951 20.1352C25.1335 20.9057 27.5947 22.5894 28.516 24.5276C29.4461 26.4843 29.0288 28.8138 27.436 30.5566C24.23 34.0643 16.9392 34.969 11.8545 32.4898C10.4331 31.7966 8.83484 30.2905 8.22735 29.0716C7.52535 27.6627 7.52593 25.8828 8.22852 24.4728C9.19316 22.5372 11.684 20.8388 14.6143 20.1186C16.6443 19.6199 20.0928 19.6275 22.0951 20.1352ZM39.7496 24.3453C39.7496 26.0783 39.6639 27.3499 39.5299 27.5998C39.4092 27.8256 38.3712 29.1159 37.2234 30.4672C34.5105 33.6615 33.5786 34.8997 31.831 37.6331C27.5174 44.3797 24.6614 51.9871 23.3353 60.2623C22.8086 63.5485 22.6118 70.4279 22.9434 73.9621C23.7502 82.5654 26.4415 90.9316 30.7695 98.2914L31.7743 100L52.3112 99.9983L72.8481 99.9963L75.289 96.9309C79.2694 91.9324 81.1352 88.9176 82.91 84.6177C86.3415 76.3036 87.0773 67.1286 85.0199 58.3096C83.9909 53.8988 81.5963 48.366 79.0616 44.543C76.0584 40.0131 72.9965 36.9049 66.6014 31.8948L62.3073 28.5307H52.7859H43.2645V26.7733V25.0158H52.247H61.2295V23.2584V21.5009H50.4895H39.7496V24.3453ZM84.5036 31.5111C82.8593 37.0139 81.5191 41.5791 81.5258 41.6561C81.5324 41.7328 82.0106 42.5237 82.5886 43.4135C83.8653 45.3787 85.646 48.9008 86.5655 51.2798C88.5959 56.5334 89.4995 61.043 89.676 66.8039C89.8517 72.5445 89.1191 77.4956 87.2859 82.9554C86.8092 84.3744 86.4194 85.5825 86.4194 85.6403C86.4194 85.698 88.1169 85.7452 90.1917 85.7452C94.885 85.7452 95.5997 85.5755 97.0485 84.118C98.8379 82.3178 98.7215 83.9735 98.7215 60.3265V39.6393L97.1582 31.0095C96.2984 26.263 95.5498 22.1818 95.4947 21.9403C95.3949 21.5023 95.3818 21.5009 91.444 21.5035L87.4934 21.506L84.5036 31.5111ZM16.1218 23.3808C11.1656 24.3371 9.63623 27.412 13.2148 29.2253C14.6932 29.9745 16.2137 30.2881 18.3674 30.2881C21.4869 30.2881 24.1017 29.379 25.05 27.9648C25.6004 27.1437 25.6125 26.5218 25.0945 25.6833C24.2146 24.2597 22.0295 23.4429 18.8556 23.3513C17.6205 23.3158 16.3903 23.3291 16.1218 23.3808ZM70.3967 44.473C71.4851 44.9216 72.2799 45.6324 73.5333 47.2791C77.2218 52.1244 79.5508 57.6144 80.4727 63.6366C80.8622 66.1817 80.8558 71.2609 80.4594 73.9301C80.1409 76.0744 79.0368 80.2423 78.5317 81.2075C78.0755 82.0788 77.0158 83.0393 75.9724 83.5273C73.9578 84.4695 71.4917 83.9509 69.9723 82.2653C68.5453 80.6824 68.302 79.1382 69.0128 76.1769C70.1907 71.2697 69.9229 66.1804 68.2356 61.3972C67.2323 58.5535 66.2714 56.7933 64.1277 53.8734C62.8352 52.1128 62.5292 51.3189 62.5257 49.7174C62.5171 45.7366 66.6998 42.9497 70.3967 44.473ZM51.477 49.5224C56.2881 54.2431 60.2962 61.1379 62.885 69.1471C63.7984 71.9733 64.9025 76.6452 65.0667 78.3794C65.1894 79.6748 65.1765 79.7258 64.4663 80.7568C63.5592 82.0739 60.7007 84.836 59.2767 85.7714C53.404 89.6293 46.1785 90.3247 39.8236 87.6432C37.9564 86.8555 35.4146 85.2234 33.851 83.8085C31.2606 81.4639 28.8785 77.4278 27.9068 73.736C27.4577 72.0299 27.3928 71.401 27.3928 68.7566C27.3928 66.1122 27.4577 65.4833 27.9068 63.7772C28.8785 60.0854 31.2606 56.0493 33.851 53.7047C36.3818 51.4146 39.8457 49.5651 42.9716 48.8354C45.1819 48.3193 45.4384 48.2931 47.9942 48.3236L50.2829 48.3507L51.477 49.5224ZM44.7942 52.074C36.1221 53.6432 29.9806 61.8463 30.9657 70.5441C31.7614 77.568 36.7311 83.341 43.5679 85.1834C45.7862 85.7811 49.7528 85.7837 51.9541 85.1889C55.3067 84.2828 58.5121 82.3065 60.5679 79.8779L61.5659 78.6984L61.2099 76.9625C59.1361 66.8523 55.2661 58.7331 49.7356 52.8908L48.6727 51.768L47.482 51.7856C46.827 51.7951 45.6177 51.925 44.7942 52.074ZM7.72511 62.6735V72.7806L8.23047 73.7948C8.50854 74.3527 9.08986 75.1121 9.52258 75.4823C10.8379 76.6083 11.604 76.7627 15.8738 76.7627H19.657L19.5004 75.0541C19.4142 74.1144 19.3512 70.9729 19.3604 68.0732C19.3742 63.6747 19.4484 62.3355 19.8077 59.9936C20.0446 58.4498 20.2065 57.1544 20.1672 57.1153C20.11 57.0581 15.7293 55.4551 8.45738 52.8307L7.72511 52.5665V62.6735Z" fill="#43D3E5"/>
</svg>
