<svg width="18" height="18" viewBox="0 0 18 18" fill="none" xmlns="http://www.w3.org/2000/svg">
<path fill-rule="evenodd" clip-rule="evenodd" d="M2.25599 6.85635C4.04331 10.7482 7.22382 13.8424 11.1775 15.519L11.19 15.5243L11.9538 15.8647C12.9265 16.2981 14.0697 15.9903 14.6933 15.1272L15.9677 13.3635C16.0455 13.2558 16.0254 13.106 15.922 13.0225L13.6973 11.2277C13.5867 11.1385 13.424 11.1593 13.3394 11.2734L12.4736 12.4418C12.2633 12.7256 11.8835 12.8242 11.5618 12.6786C8.60542 11.3406 6.22968 8.9649 4.89175 6.00851C4.74613 5.68674 4.84473 5.30699 5.12848 5.09671L6.29686 4.23085C6.41103 4.14624 6.43182 3.98362 6.34258 3.87302L4.54754 1.64798C4.46411 1.54456 4.31437 1.52448 4.20664 1.60225L2.43334 2.88241C1.56455 3.5096 1.2586 4.66244 1.70206 5.63789L2.2554 6.85505C2.2556 6.85549 2.2558 6.85592 2.25599 6.85635ZM10.5856 16.8973C6.28963 15.0737 2.83426 11.7107 0.892223 7.4809L0.891053 7.4784L0.336553 6.25868C-0.402547 4.63293 0.107373 2.71152 1.55536 1.66621L3.32865 0.386051C4.08277 -0.158359 5.131 -0.0177486 5.71499 0.706141L7.51002 2.93119C8.13462 3.70536 7.98912 4.84375 7.18992 5.43599L6.52042 5.93215C7.65142 8.1265 9.44372 9.9189 11.6381 11.0498L12.1343 10.3803C12.7265 9.5812 13.8649 9.4357 14.6391 10.0603L16.8638 11.855C17.5879 12.4392 17.7284 13.4879 17.1835 14.242L15.9091 16.0057C14.8698 17.4442 12.9644 17.9572 11.3434 17.2349L10.5856 16.8973Z" fill="#C9C9C9"/>
</svg>
