<svg width="14" height="14" viewBox="0 0 14 14" fill="none" xmlns="http://www.w3.org/2000/svg">
<path fill-rule="evenodd" clip-rule="evenodd" d="M2.38047 5.39237C3.72096 8.31126 6.10634 10.6319 9.07162 11.8894L9.08099 11.8933L9.65384 12.1486C10.3834 12.4737 11.2408 12.2428 11.7085 11.5955L12.6643 10.2727C12.7226 10.192 12.7075 10.0796 12.63 10.017L10.9615 8.67088C10.8785 8.60398 10.7565 8.61958 10.693 8.70516L10.0437 9.58146C9.88597 9.79431 9.60112 9.86826 9.35984 9.75906C7.14254 8.75556 5.36074 6.97378 4.35729 4.75649C4.24808 4.51516 4.32203 4.23035 4.53484 4.07264L5.41112 3.42325C5.49675 3.35979 5.51234 3.23782 5.44541 3.15487L4.09913 1.48609C4.03656 1.40853 3.92426 1.39347 3.84346 1.4518L2.51348 2.41192C1.86189 2.88231 1.63243 3.74694 1.96502 4.47853L2.38003 5.3914C2.38018 5.39173 2.38033 5.39205 2.38047 5.39237ZM8.62769 12.9231C5.4057 11.5554 2.81417 9.03313 1.35764 5.86078L1.35677 5.85891L0.940891 4.94412C0.386566 3.72481 0.769006 2.28375 1.855 1.49977L3.18497 0.539645C3.75056 0.131338 4.53673 0.236795 4.97472 0.779713L6.32099 2.4485C6.78944 3.02913 6.68032 3.88292 6.08092 4.3271L5.57879 4.69922C6.42704 6.34498 7.77127 7.68928 9.41707 8.53746L9.78922 8.03533C10.2334 7.43601 11.0872 7.32688 11.6678 7.79533L13.3363 9.14136C13.8794 9.57951 13.9848 10.366 13.5761 10.9316L12.6203 12.2544C11.8408 13.3333 10.4118 13.718 9.19604 13.1763L8.62769 12.9231Z" fill="#C9C9C9"/>
</svg>
