<svg width="32" height="42" viewBox="0 0 32 42" fill="none" xmlns="http://www.w3.org/2000/svg">
<path d="M26.49 4.00067C24.354 2.09237 21.738 0.802692 18.9236 0.270425C16.1091 -0.261841 13.2029 -0.0165418 10.5175 0.979924C7.8321 1.97639 5.46929 3.6863 3.68334 5.92562C1.89738 8.16495 0.7559 10.8489 0.381735 13.6887C0.0456998 16.1787 0.31445 18.7129 1.16524 21.0771C2.01604 23.4412 3.42383 25.5656 5.26949 27.2704C6.41084 28.2713 7.33182 29.4984 7.97408 30.8739C8.61634 32.2494 8.96586 33.7433 9.00049 35.2609V35.5427C9.00234 37.2547 9.68328 38.8961 10.8939 40.1068C12.1045 41.3174 13.7459 41.9983 15.458 42.0002H16.543C18.2551 41.9983 19.8965 41.3174 21.1071 40.1068C22.3177 38.8961 22.9986 37.2547 23.0005 35.5427V34.5819C23.0267 33.2405 23.3424 31.9205 23.9259 30.7124C24.5094 29.5042 25.3471 28.4364 26.3815 27.5819C28.059 26.1127 29.4052 24.3038 30.3308 22.275C31.2565 20.2462 31.7405 18.0439 31.7507 15.814C31.761 13.5841 31.2973 11.3774 30.3904 9.34019C29.4834 7.303 28.1539 5.48177 26.49 3.99717V4.00067ZM16.543 38.5002H15.458C14.6739 38.4992 13.9222 38.1874 13.3677 37.6329C12.8133 37.0785 12.5014 36.3268 12.5005 35.5427C12.5005 35.5427 12.4882 35.0877 12.4865 35.0002H19.5005V35.5427C19.4996 36.3268 19.1877 37.0785 18.6332 37.6329C18.0788 38.1874 17.3271 38.4992 16.543 38.5002ZM24.068 24.9534C22.0755 26.6816 20.6365 28.9587 19.931 31.5002H17.7505V18.9282C18.7706 18.5675 19.6543 17.9005 20.2808 17.0184C20.9073 16.1363 21.246 15.0821 21.2505 14.0002C21.2505 13.536 21.0661 13.0909 20.7379 12.7627C20.4097 12.4345 19.9646 12.2502 19.5005 12.2502C19.0364 12.2502 18.5912 12.4345 18.263 12.7627C17.9349 13.0909 17.7505 13.536 17.7505 14.0002C17.7505 14.4643 17.5661 14.9094 17.2379 15.2376C16.9097 15.5658 16.4646 15.7502 16.0005 15.7502C15.5364 15.7502 15.0912 15.5658 14.763 15.2376C14.4349 14.9094 14.2505 14.4643 14.2505 14.0002C14.2505 13.536 14.0661 13.0909 13.7379 12.7627C13.4097 12.4345 12.9646 12.2502 12.5005 12.2502C12.0364 12.2502 11.5912 12.4345 11.263 12.7627C10.9349 13.0909 10.7505 13.536 10.7505 14.0002C10.755 15.0821 11.0936 16.1363 11.7201 17.0184C12.3466 17.9005 13.2304 18.5675 14.2505 18.9282V31.5002H11.937C11.1477 28.8913 9.66744 26.5445 7.65299 24.7084C5.94316 23.1152 4.72475 21.0661 4.14156 18.803C3.55836 16.5399 3.63471 14.1572 4.3616 11.936C5.08849 9.71489 6.43558 7.74803 8.2439 6.26756C10.0522 4.78708 12.2463 3.85478 14.5672 3.58067C15.0484 3.52696 15.5321 3.50009 16.0162 3.50017C19.022 3.49124 21.9237 4.60026 24.1572 6.61167C25.4517 7.76597 26.486 9.18223 27.1916 10.7666C27.8973 12.3509 28.2581 14.0671 28.2501 15.8015C28.2422 17.5358 27.8657 19.2487 27.1456 20.8265C26.4255 22.4043 25.3782 23.811 24.0732 24.9534H24.068Z" fill="white"/>
</svg>
