<svg width="107" height="106" viewBox="0 0 107 106" fill="none" xmlns="http://www.w3.org/2000/svg">
<path fill-rule="evenodd" clip-rule="evenodd" d="M45.5952 0.887277C45.5192 1.3754 45.1852 3.95725 44.8527 6.625C44.5184 9.30765 44.1039 11.696 43.9255 11.969C43.7049 12.3059 42.657 12.7709 40.6182 13.4362C38.9766 13.9717 36.3552 15.0539 34.7929 15.8411C33.2303 16.6283 31.709 17.2723 31.412 17.2723C31.0763 17.2723 29.1522 15.9308 26.3214 13.7232C23.8186 11.7712 21.6953 10.1741 21.6032 10.1741C21.396 10.1741 10.6741 20.886 10.6741 21.0933C10.6741 21.1754 12.2712 23.2961 14.2232 25.8058C16.387 28.5878 17.7723 30.576 17.7723 30.8997C17.7723 31.1917 17.1361 32.6901 16.3586 34.2297C15.5811 35.7693 14.4996 38.395 13.9554 40.0647C13.2491 42.2313 12.8166 43.1981 12.4446 43.4418C12.1378 43.6429 9.98795 44.0234 7.21728 44.3667C4.62879 44.6875 2.05853 45.011 1.50558 45.0855L0.5 45.2211V53.0144C0.5 57.301 0.582103 60.808 0.682661 60.808C1.90261 60.808 12.1027 62.3386 12.469 62.5767C12.8066 62.7962 13.2697 63.839 13.9362 65.8818C14.4717 67.5234 15.5539 70.1448 16.3411 71.7071C17.1283 73.2697 17.7723 74.7917 17.7723 75.0896C17.7723 75.427 16.4348 77.3507 14.2232 80.1942C12.2712 82.7039 10.6741 84.8263 10.6741 84.9107C10.6741 85.1088 21.395 95.8259 21.5933 95.8259C21.6754 95.8259 23.7961 94.2288 26.3058 92.2768C29.1699 90.0491 31.0718 88.7277 31.4141 88.7277C31.7139 88.7277 33.2559 89.3781 34.8407 90.1733C36.4252 90.9683 39.045 92.0506 40.6622 92.5782C42.666 93.232 43.7054 93.6948 43.9255 94.031C44.1039 94.304 44.5184 96.6923 44.8527 99.375C45.1852 102.043 45.5192 104.625 45.5952 105.113L45.7336 106H61.2664L61.4048 105.113C61.4808 104.625 61.8148 102.043 62.1473 99.375C62.4797 96.7073 62.8928 94.3088 63.0656 94.045C63.2745 93.7255 64.3974 93.2289 66.4251 92.5586C68.1003 92.0052 70.7307 90.9165 72.2703 90.14C73.8099 89.3632 75.3083 88.7277 75.6003 88.7277C75.924 88.7277 77.9122 90.113 80.6942 92.2768C83.2039 94.2288 85.3263 95.8259 85.4107 95.8259C85.6088 95.8259 96.3259 85.105 96.3259 84.9067C96.3259 84.8246 94.7288 82.7039 92.7768 80.1942C90.5491 77.3301 89.2277 75.4282 89.2277 75.0859C89.2277 74.7861 89.8781 73.2441 90.6733 71.6593C91.4683 70.0748 92.5506 67.455 93.0782 65.8378C93.7656 63.7313 94.1874 62.7993 94.5655 62.5516C94.9491 62.3003 104.257 60.9363 106.441 60.8114C106.473 60.8095 106.5 57.3039 106.5 53.0208V45.2336L105.613 45.0952C105.125 45.0192 102.543 44.6852 99.875 44.3527C97.1923 44.0184 94.804 43.6039 94.531 43.4255C94.1948 43.2054 93.732 42.166 93.0782 40.1622C92.5506 38.545 91.4683 35.9252 90.6733 34.3407C89.8781 32.7559 89.2277 31.2139 89.2277 30.9141C89.2277 30.5718 90.5491 28.6699 92.7768 25.8058C94.7288 23.2961 96.3259 21.1737 96.3259 21.0893C96.3259 20.8912 85.605 10.1741 85.4067 10.1741C85.3246 10.1741 83.2039 11.7712 80.6942 13.7232C78.0021 15.8172 75.9197 17.2723 75.6152 17.2723C75.3315 17.2723 73.8546 16.6432 72.3332 15.8742C70.8118 15.1052 68.1748 14.0166 66.4732 13.4554C64.3141 12.7432 63.279 12.2816 63.0471 11.9276C62.7991 11.5493 61.3208 1.55143 61.3095 0.177455C61.3088 0.0797366 57.8039 0 53.5208 0H45.7336L45.5952 0.887277ZM55.3929 11.3571H51.6071V7.57143H55.3929V11.3571ZM60.4664 17.7356C67.7362 19.2028 73.4751 22.3057 78.8326 27.666C84.2951 33.1311 87.4926 39.1838 88.9035 46.7299C89.5145 49.9975 89.5145 56.0025 88.9035 59.2701C87.4924 66.8174 84.2942 72.8712 78.8326 78.3326C73.3712 83.7942 67.3174 86.9924 59.7701 88.4035C56.5846 88.9991 50.2646 89.0026 47.2299 88.4104C32.1124 85.4608 21.0392 74.3876 18.0896 59.2701C17.4986 56.241 17.5009 49.918 18.0946 46.7299C19.5007 39.1758 22.6812 33.156 28.1674 27.6643C34.3005 21.5253 40.5249 18.5443 50.0692 17.1751C51.7666 16.9316 58.2019 17.2785 60.4664 17.7356ZM24.1636 20.9426L25.4514 22.2465L22.7411 24.9568L20.0307 22.2465L21.3186 20.9426C22.027 20.2252 22.667 19.6384 22.7411 19.6384C22.8151 19.6384 23.4552 20.2252 24.1636 20.9426ZM85.6814 20.9426L86.9693 22.2465L84.2589 24.9568L81.5486 22.2465L82.8364 20.9426C83.5449 20.2252 84.1849 19.6384 84.2589 19.6384C84.333 19.6384 84.973 20.2252 85.6814 20.9426ZM48.6604 21.1804C35.0785 23.3945 24.5885 33.5182 21.863 47.0418C21.2964 49.8536 21.3008 56.0981 21.8715 58.9722C24.1378 70.384 32.1076 79.5864 42.9866 83.3524C46.8523 84.6905 49.0679 85.047 53.5 85.0442C57.723 85.0416 59.9317 84.7222 63.3192 83.6243C71.4315 80.9956 78.4351 75.004 82.2497 67.4295C86.0157 59.9508 86.67 50.9732 84.0278 43.0339C83.5243 41.5215 82.7404 39.5453 82.2856 38.6422C77.8826 29.8991 69.6683 23.5758 60.0067 21.492C57.1236 20.8702 51.5092 20.7159 48.6604 21.1804ZM60.9257 26.7877C62.9591 27.3885 64.8571 29.9911 64.8571 32.1786C64.8571 34.0939 63.3798 36.4853 61.7893 37.144L61.0714 37.4414V46.9017L65.438 56.9016C67.8396 62.4016 69.9295 67.399 70.0826 68.0068C70.5187 69.7383 70.2473 72.102 69.4062 73.8997C68.3963 76.0574 67.0441 77.4358 64.895 78.498L63.1072 79.3817H43.9174L42.3683 78.6475C39.6949 77.3807 38.0966 75.6137 37.19 72.9221C36.6522 71.3252 36.5603 69.2585 36.9621 67.7879C37.1043 67.2674 39.1801 62.3576 41.5748 56.877L45.9286 46.9123V37.4414L45.2107 37.144C44.2359 36.7401 42.7609 35.0145 42.4211 33.8805C41.7735 31.7191 42.2477 29.9291 43.9094 28.2639C44.5645 27.6076 45.4731 26.9529 45.9286 26.8092C47.1296 26.4307 59.6565 26.4127 60.9257 26.7877ZM46.5094 30.8666C46.1432 31.2326 45.9286 31.7177 45.9286 32.1786C45.9286 32.6395 46.1432 33.1245 46.5094 33.4906L47.0901 34.0714H59.9099L60.4906 33.4906C60.8568 33.1245 61.0714 32.6395 61.0714 32.1786C61.0714 31.7177 60.8568 31.2326 60.4906 30.8666L59.9099 30.2857H47.0901L46.5094 30.8666ZM49.7143 47.7213L48.0725 51.4796C46.8994 54.1653 46.5111 55.2889 46.712 55.4167C46.8667 55.5149 47.8661 55.597 48.933 55.5991C50.3974 55.6017 51.3544 55.4472 52.837 54.969C54.2699 54.5067 55.5128 54.2987 57.4315 54.2001L60.0616 54.0647L57.2857 47.7263V37.8571H49.7143V47.7213ZM11.8571 54.8929H8.07143V51.1071H11.8571V54.8929ZM98.9286 54.8929H95.1429V51.1071H98.9286V54.8929ZM54.2098 58.5887C52.6821 59.1267 52.024 59.2176 49.4777 59.2419C47.851 59.2573 46.1361 59.1882 45.6669 59.0884L44.8137 58.9064L42.9875 63.0712C40.2784 69.2497 40.1674 69.6834 40.7473 71.8103C41.0869 73.0553 43.0898 75.0269 44.4181 75.4235C45.1066 75.6291 47.7852 75.7143 53.5568 75.7143C62.8003 75.7143 63.0942 75.6696 64.794 74.0029C65.9966 72.8237 66.6163 71.1868 66.4623 69.5959C66.3968 68.9189 65.5528 66.6487 64.2616 63.6762C61.8094 58.0307 61.9634 58.1746 58.2321 58.043C56.283 57.9742 55.7487 58.0466 54.2098 58.5887ZM57.2857 68.1429H53.5V64.3571H57.2857V68.1429ZM49.7143 71.9286H45.9286V68.1429H49.7143V71.9286ZM24.1636 82.4604L25.4514 83.7644L22.7411 86.4747L20.0307 83.7644L21.3186 82.4604C22.027 81.743 22.667 81.1562 22.7411 81.1562C22.8151 81.1562 23.4552 81.743 24.1636 82.4604ZM85.6814 82.4604L86.9693 83.7644L84.2589 86.4747L81.5486 83.7644L82.8364 82.4604C83.5449 81.743 84.1849 81.1562 84.2589 81.1562C84.333 81.1562 84.973 81.743 85.6814 82.4604ZM55.3929 98.4286H51.6071V94.6429H55.3929V98.4286Z" fill="black"/>
<path fill-rule="evenodd" clip-rule="evenodd" d="M45.5952 0.887277C45.5192 1.3754 45.1852 3.95725 44.8527 6.625C44.5184 9.30765 44.1039 11.696 43.9255 11.969C43.7049 12.3059 42.657 12.7709 40.6182 13.4362C38.9766 13.9717 36.3552 15.0539 34.7929 15.8411C33.2303 16.6283 31.709 17.2723 31.412 17.2723C31.0763 17.2723 29.1522 15.9308 26.3214 13.7232C23.8186 11.7712 21.6953 10.1741 21.6032 10.1741C21.396 10.1741 10.6741 20.886 10.6741 21.0933C10.6741 21.1754 12.2712 23.2961 14.2232 25.8058C16.387 28.5878 17.7723 30.576 17.7723 30.8997C17.7723 31.1917 17.1361 32.6901 16.3586 34.2297C15.5811 35.7693 14.4996 38.395 13.9554 40.0647C13.2491 42.2313 12.8166 43.1981 12.4446 43.4418C12.1378 43.6429 9.98795 44.0234 7.21728 44.3667C4.62879 44.6875 2.05853 45.011 1.50558 45.0855L0.5 45.2211V53.0144C0.5 57.301 0.582103 60.808 0.682661 60.808C1.90261 60.808 12.1027 62.3386 12.469 62.5767C12.8066 62.7962 13.2697 63.839 13.9362 65.8818C14.4717 67.5234 15.5539 70.1448 16.3411 71.7071C17.1283 73.2697 17.7723 74.7917 17.7723 75.0896C17.7723 75.427 16.4348 77.3507 14.2232 80.1942C12.2712 82.7039 10.6741 84.8263 10.6741 84.9107C10.6741 85.1088 21.395 95.8259 21.5933 95.8259C21.6754 95.8259 23.7961 94.2288 26.3058 92.2768C29.1699 90.0491 31.0718 88.7277 31.4141 88.7277C31.7139 88.7277 33.2559 89.3781 34.8407 90.1733C36.4252 90.9683 39.045 92.0506 40.6622 92.5782C42.666 93.232 43.7054 93.6948 43.9255 94.031C44.1039 94.304 44.5184 96.6923 44.8527 99.375C45.1852 102.043 45.5192 104.625 45.5952 105.113L45.7336 106H61.2664L61.4048 105.113C61.4808 104.625 61.8148 102.043 62.1473 99.375C62.4797 96.7073 62.8928 94.3088 63.0656 94.045C63.2745 93.7255 64.3974 93.2289 66.4251 92.5586C68.1003 92.0052 70.7307 90.9165 72.2703 90.14C73.8099 89.3632 75.3083 88.7277 75.6003 88.7277C75.924 88.7277 77.9122 90.113 80.6942 92.2768C83.2039 94.2288 85.3263 95.8259 85.4107 95.8259C85.6088 95.8259 96.3259 85.105 96.3259 84.9067C96.3259 84.8246 94.7288 82.7039 92.7768 80.1942C90.5491 77.3301 89.2277 75.4282 89.2277 75.0859C89.2277 74.7861 89.8781 73.2441 90.6733 71.6593C91.4683 70.0748 92.5506 67.455 93.0782 65.8378C93.7656 63.7313 94.1874 62.7993 94.5655 62.5516C94.9491 62.3003 104.257 60.9363 106.441 60.8114C106.473 60.8095 106.5 57.3039 106.5 53.0208V45.2336L105.613 45.0952C105.125 45.0192 102.543 44.6852 99.875 44.3527C97.1923 44.0184 94.804 43.6039 94.531 43.4255C94.1948 43.2054 93.732 42.166 93.0782 40.1622C92.5506 38.545 91.4683 35.9252 90.6733 34.3407C89.8781 32.7559 89.2277 31.2139 89.2277 30.9141C89.2277 30.5718 90.5491 28.6699 92.7768 25.8058C94.7288 23.2961 96.3259 21.1737 96.3259 21.0893C96.3259 20.8912 85.605 10.1741 85.4067 10.1741C85.3246 10.1741 83.2039 11.7712 80.6942 13.7232C78.0021 15.8172 75.9197 17.2723 75.6152 17.2723C75.3315 17.2723 73.8546 16.6432 72.3332 15.8742C70.8118 15.1052 68.1748 14.0166 66.4732 13.4554C64.3141 12.7432 63.279 12.2816 63.0471 11.9276C62.7991 11.5493 61.3208 1.55143 61.3095 0.177455C61.3088 0.0797366 57.8039 0 53.5208 0H45.7336L45.5952 0.887277ZM55.3929 11.3571H51.6071V7.57143H55.3929V11.3571ZM60.4664 17.7356C67.7362 19.2028 73.4751 22.3057 78.8326 27.666C84.2951 33.1311 87.4926 39.1838 88.9035 46.7299C89.5145 49.9975 89.5145 56.0025 88.9035 59.2701C87.4924 66.8174 84.2942 72.8712 78.8326 78.3326C73.3712 83.7942 67.3174 86.9924 59.7701 88.4035C56.5846 88.9991 50.2646 89.0026 47.2299 88.4104C32.1124 85.4608 21.0392 74.3876 18.0896 59.2701C17.4986 56.241 17.5009 49.918 18.0946 46.7299C19.5007 39.1758 22.6812 33.156 28.1674 27.6643C34.3005 21.5253 40.5249 18.5443 50.0692 17.1751C51.7666 16.9316 58.2019 17.2785 60.4664 17.7356ZM24.1636 20.9426L25.4514 22.2465L22.7411 24.9568L20.0307 22.2465L21.3186 20.9426C22.027 20.2252 22.667 19.6384 22.7411 19.6384C22.8151 19.6384 23.4552 20.2252 24.1636 20.9426ZM85.6814 20.9426L86.9693 22.2465L84.2589 24.9568L81.5486 22.2465L82.8364 20.9426C83.5449 20.2252 84.1849 19.6384 84.2589 19.6384C84.333 19.6384 84.973 20.2252 85.6814 20.9426ZM48.6604 21.1804C35.0785 23.3945 24.5885 33.5182 21.863 47.0418C21.2964 49.8536 21.3008 56.0981 21.8715 58.9722C24.1378 70.384 32.1076 79.5864 42.9866 83.3524C46.8523 84.6905 49.0679 85.047 53.5 85.0442C57.723 85.0416 59.9317 84.7222 63.3192 83.6243C71.4315 80.9956 78.4351 75.004 82.2497 67.4295C86.0157 59.9508 86.67 50.9732 84.0278 43.0339C83.5243 41.5215 82.7404 39.5453 82.2856 38.6422C77.8826 29.8991 69.6683 23.5758 60.0067 21.492C57.1236 20.8702 51.5092 20.7159 48.6604 21.1804ZM60.9257 26.7877C62.9591 27.3885 64.8571 29.9911 64.8571 32.1786C64.8571 34.0939 63.3798 36.4853 61.7893 37.144L61.0714 37.4414V46.9017L65.438 56.9016C67.8396 62.4016 69.9295 67.399 70.0826 68.0068C70.5187 69.7383 70.2473 72.102 69.4062 73.8997C68.3963 76.0574 67.0441 77.4358 64.895 78.498L63.1072 79.3817H43.9174L42.3683 78.6475C39.6949 77.3807 38.0966 75.6137 37.19 72.9221C36.6522 71.3252 36.5603 69.2585 36.9621 67.7879C37.1043 67.2674 39.1801 62.3576 41.5748 56.877L45.9286 46.9123V37.4414L45.2107 37.144C44.2359 36.7401 42.7609 35.0145 42.4211 33.8805C41.7735 31.7191 42.2477 29.9291 43.9094 28.2639C44.5645 27.6076 45.4731 26.9529 45.9286 26.8092C47.1296 26.4307 59.6565 26.4127 60.9257 26.7877ZM11.8571 54.8929H8.07143V51.1071H11.8571V54.8929ZM98.9286 54.8929H95.1429V51.1071H98.9286V54.8929ZM24.1636 82.4604L25.4514 83.7644L22.7411 86.4747L20.0307 83.7644L21.3186 82.4604C22.027 81.743 22.667 81.1562 22.7411 81.1562C22.8151 81.1562 23.4552 81.743 24.1636 82.4604ZM85.6814 82.4604L86.9693 83.7644L84.2589 86.4747L81.5486 83.7644L82.8364 82.4604C83.5449 81.743 84.1849 81.1562 84.2589 81.1562C84.333 81.1562 84.973 81.743 85.6814 82.4604ZM55.3929 98.4286H51.6071V94.6429H55.3929V98.4286Z" fill="#43D3E5"/>
</svg>
