<svg width="108" height="100" viewBox="0 0 108 100" fill="none" xmlns="http://www.w3.org/2000/svg">
<path fill-rule="evenodd" clip-rule="evenodd" d="M14.5442 0.270911C11.8824 1.30655 11.9125 4.58629 14.5928 5.58619C15.1369 5.7891 16.662 5.85393 20.8943 5.85393H26.478V11.908H32.56C39.5536 11.908 39.8076 11.957 40.6981 13.4774C41.3093 14.5208 41.3213 15.0727 40.7565 16.1623C40.4255 16.8009 40.0967 17.0887 39.3673 17.3785C38.4981 17.7238 37.8721 17.7586 32.4449 17.7625L26.478 17.7668V24.1827L32.3333 24.2458C37.7468 24.3044 38.2469 24.3392 38.9616 24.7065C41.1429 25.8287 41.1429 28.6483 38.9616 29.7704C38.2469 30.1378 37.7468 30.1725 32.3333 30.2311L26.478 30.2942V37.296H32.2996C37.1838 37.296 38.2429 37.3466 38.8764 37.6097C39.9433 38.053 40.5823 39.0445 40.5823 40.2571C40.5823 41.3208 40.2027 41.9378 39.107 42.6545C38.5268 43.0341 38.1481 43.0605 32.4848 43.115L26.478 43.1728V44.4033C26.478 45.5313 26.3406 45.8846 24.8304 48.642L23.1829 51.65L41.4844 51.7C51.5502 51.7276 59.8258 51.7149 59.8749 51.6721C59.9237 51.6291 59.205 50.2676 58.2775 48.6463L56.5912 45.6985V5.85393H62.1749C68.2178 5.85393 68.7014 5.78597 69.7518 4.7892C70.2334 4.33241 70.3094 4.07794 70.3094 2.92455C70.3094 1.77115 70.2334 1.51668 69.7518 1.05989C68.574 -0.0577669 69.9704 -0.00542842 41.486 0.00277387C20.0897 0.00902324 15.0892 0.0588228 14.5442 0.270911ZM73.6553 46.5527C70.638 47.3882 68.9967 49.3218 68.9967 52.0406C68.9967 54.3463 70.3407 56.1877 72.7803 57.2245C75.1405 58.2275 78.5188 57.6287 80.2526 55.8998C81.9746 54.1828 82.4161 51.7055 81.3681 49.6426C80.0893 47.1257 76.614 45.7335 73.6553 46.5527ZM18.5814 59.9988C17.9283 61.2073 13.5946 69.0946 8.95163 77.5263L0.509446 92.8568L0.500523 94.4191C0.492493 95.7928 0.57101 96.1072 1.1503 97.023C1.87012 98.1605 2.62339 98.7964 4.03448 99.4573L4.9526 99.8873L40.5594 99.9939L39.4211 98.7689C35.9159 94.997 35.3444 90.5783 37.7849 86.1221C38.3867 85.0232 39.0149 84.2844 40.2848 83.1812C43.6693 80.2411 47.3157 79.271 52.353 79.9706L53.1338 80.079L59.0388 71.0664C62.2866 66.1095 65.0608 61.9136 65.204 61.7424C65.4208 61.4826 65.759 61.9461 67.2345 64.5259L69.005 67.6211L70.3822 65.5584C71.7841 63.4584 71.9574 63.0747 71.5039 63.0747C70.9496 63.0747 68.0239 61.6949 67.092 60.994C66.5491 60.5858 66.0688 60.3472 66.0244 60.4638C65.98 60.5804 65.8197 60.8241 65.6682 61.0055C65.4291 61.292 65.262 61.1022 64.4035 59.5686L63.4144 57.8018H19.7694L18.5814 59.9988ZM84.2222 60.6673C83.7243 61.1985 81.4377 62.4222 80.2359 62.8007C79.6222 62.9938 79.1203 63.2194 79.1203 63.302C79.1203 63.4586 91.5092 82.325 91.8888 82.7465C92.0521 82.9279 92.3329 82.8234 93.0342 82.3202C94.0197 81.6132 95.9327 80.6729 97.1272 80.3083L97.8465 80.0887L96.0611 77.3918C95.0792 75.9083 92.1484 71.4648 89.5482 67.5176C86.9482 63.5703 84.7549 60.3406 84.6746 60.3406C84.5943 60.3406 84.3906 60.4876 84.2222 60.6673ZM63.8933 75.4015L58.8533 83.0548L59.6953 83.9522C60.8144 85.1452 61.4408 86.0881 61.942 87.3347L62.3564 88.365L71.4076 88.416C77.7702 88.452 80.4587 88.4045 80.4587 88.2565C80.4587 88.0469 69.361 68.1943 69.0802 67.9013C68.9994 67.8171 66.6653 71.1922 63.8933 75.4015ZM35.2164 71.174C36.2431 71.7849 36.8624 73.0807 36.6348 74.1425C35.9228 77.4652 30.4007 77.3783 29.8886 74.0362C29.502 71.5121 32.8033 69.7384 35.2164 71.174ZM23.466 79.8548C25.6696 80.9396 25.7019 83.7632 23.5244 84.9599C22.9541 85.2734 22.5204 85.3441 21.5124 85.2874C20.4105 85.2253 20.1161 85.1208 19.4469 84.5529C19.0177 84.1887 18.5691 83.5819 18.4502 83.2046C17.9985 81.7729 19.077 80.1032 20.7899 79.582C21.7683 79.2841 22.447 79.3535 23.466 79.8548ZM47.8187 85.8024C46.3618 86.1598 45.0282 87.0134 44.1587 88.1451C43.2294 89.3546 42.9031 90.44 43.0628 91.7901C43.4286 94.8812 46.0447 96.953 49.5648 96.9394C52.8906 96.9265 55.2488 95.2155 55.9144 92.3324C56.8493 88.2826 52.3856 84.682 47.8187 85.8024ZM99.9765 85.7044C96.1216 86.5818 94.0117 89.9696 95.2644 93.2712C96.8445 97.4368 103.46 98.2955 106.619 94.7451C109.083 91.9764 107.735 87.5487 103.985 86.0965C102.91 85.68 100.933 85.4866 99.9765 85.7044ZM81.9091 90.6597C82.5747 91.8682 83.1843 93.1864 83.2637 93.5891L83.4082 94.3215H72.8925C63.0771 94.3215 62.3678 94.3443 62.2433 94.6632C61.7178 96.0098 60.4261 97.9779 59.4613 98.9021L58.3152 100L78.7858 99.8873L79.9805 99.3081C80.6374 98.9893 81.4676 98.4181 81.8252 98.0387C82.5414 97.2784 83.3585 95.5538 83.3585 94.8023V94.3215H88.5043L88.3292 93.2962C88.1126 92.027 88.107 90.8232 88.3111 89.488L88.4679 88.4627H80.6987L81.9091 90.6597Z" fill="#43D3E5"/>
<path fill-rule="evenodd" clip-rule="evenodd" d="M18.5814 59.9988C17.9283 61.2073 13.5946 69.0946 8.95163 77.5263L0.509446 92.8568L0.500523 94.4191C0.492493 95.7928 0.57101 96.1072 1.1503 97.023C1.87012 98.1605 2.62339 98.7964 4.03448 99.4573L4.9526 99.8873L40.5594 99.9939L39.4211 98.7689C35.9159 94.997 35.3444 90.5783 37.7849 86.1221C38.3867 85.0232 39.0149 84.2844 40.2848 83.1812C43.6693 80.2411 47.3157 79.271 52.353 79.9706L53.1338 80.079L59.0388 71.0664C62.2866 66.1095 65.0608 61.9136 65.204 61.7424C65.4208 61.4826 65.759 61.9461 67.2345 64.5259L69.005 67.6211L70.3822 65.5584C71.7841 63.4584 71.9574 63.0747 71.5039 63.0747C70.9496 63.0747 68.0239 61.6949 67.092 60.994C66.5491 60.5858 66.0688 60.3472 66.0244 60.4638C65.98 60.5804 65.8197 60.8241 65.6682 61.0055C65.4291 61.292 65.262 61.1022 64.4035 59.5686L63.4144 57.8018H19.7694L18.5814 59.9988ZM84.2222 60.6673C83.7243 61.1985 81.4377 62.4222 80.2359 62.8007C79.6222 62.9938 79.1203 63.2194 79.1203 63.302C79.1203 63.4586 91.5092 82.325 91.8888 82.7465C92.0521 82.9279 92.3329 82.8234 93.0342 82.3202C94.0197 81.6132 95.9327 80.6729 97.1272 80.3083L97.8465 80.0887L96.0611 77.3918C95.0792 75.9083 92.1484 71.4648 89.5482 67.5176C86.9482 63.5703 84.7549 60.3406 84.6746 60.3406C84.5943 60.3406 84.3906 60.4876 84.2222 60.6673ZM63.8933 75.4015L58.8533 83.0548L59.6953 83.9522C60.8144 85.1452 61.4408 86.0881 61.942 87.3347L62.3564 88.365L71.4076 88.416C77.7702 88.452 80.4587 88.4045 80.4587 88.2565C80.4587 88.0469 69.361 68.1943 69.0802 67.9013C68.9994 67.8171 66.6653 71.1922 63.8933 75.4015ZM35.2164 71.174C36.2431 71.7849 36.8624 73.0807 36.6348 74.1425C35.9228 77.4652 30.4007 77.3783 29.8886 74.0362C29.502 71.5121 32.8033 69.7384 35.2164 71.174ZM23.466 79.8548C25.6696 80.9396 25.7019 83.7632 23.5244 84.9599C22.9541 85.2734 22.5204 85.3441 21.5124 85.2874C20.4105 85.2253 20.1161 85.1208 19.4469 84.5529C19.0177 84.1887 18.5691 83.5819 18.4502 83.2046C17.9985 81.7729 19.077 80.1032 20.7899 79.582C21.7683 79.2841 22.447 79.3535 23.466 79.8548ZM47.8187 85.8024C46.3618 86.1598 45.0282 87.0134 44.1587 88.1451C43.2294 89.3546 42.9031 90.44 43.0628 91.7901C43.4286 94.8812 46.0447 96.953 49.5648 96.9394C52.8906 96.9265 55.2488 95.2155 55.9144 92.3324C56.8493 88.2826 52.3856 84.682 47.8187 85.8024ZM81.9091 90.6597C82.5747 91.8682 83.1843 93.1864 83.2637 93.5891L83.4082 94.3215H72.8925C63.0771 94.3215 62.3678 94.3443 62.2433 94.6632C61.7178 96.0098 60.4261 97.9779 59.4613 98.9021L58.3152 100L78.7858 99.8873L79.9805 99.3081C80.6374 98.9893 81.4676 98.4181 81.8252 98.0387C82.5414 97.2784 83.3585 95.5538 83.3585 94.8023V94.3215H88.5043L88.3292 93.2962C88.1126 92.027 88.107 90.8232 88.3111 89.488L88.4679 88.4627H80.6987L81.9091 90.6597Z" fill="black"/>
</svg>
