<svg width="29" height="43" viewBox="0 0 29 43" fill="none" xmlns="http://www.w3.org/2000/svg">
<path d="M28.1878 14.5262C28.1927 12.2963 27.6561 10.0985 26.6241 8.12172C25.5922 6.14494 24.0957 4.44827 22.2633 3.17748C20.4309 1.9067 18.3173 1.0998 16.1043 0.82612C13.8912 0.552439 11.6447 0.820159 9.55797 1.60628C7.4712 2.39239 5.60649 3.6734 4.12406 5.33923C2.64162 7.00506 1.5858 9.00591 1.0473 11.1698C0.508805 13.3338 0.503738 15.5961 1.03254 17.7624C1.56133 19.9288 2.60819 21.9343 4.08314 23.6068V37.77C4.08313 38.5809 4.31215 39.3752 4.74384 40.0616C5.17552 40.748 5.79231 41.2985 6.52316 41.6497C7.25401 42.001 8.0692 42.1386 8.87485 42.0468C9.6805 41.955 10.4438 41.6375 11.0769 41.1309L13.8765 38.8926C14.0291 38.7708 14.2185 38.7044 14.4137 38.7044C14.6089 38.7044 14.7984 38.7708 14.9509 38.8926L17.7505 41.1309C18.3836 41.6375 19.1469 41.955 19.9526 42.0468C20.7582 42.1386 21.5734 42.001 22.3043 41.6497C23.0351 41.2985 23.6519 40.748 24.0836 40.0616C24.5153 39.3752 24.7443 38.5809 24.7443 37.77V23.6068C26.9625 21.1019 28.1873 17.872 28.1878 14.5262ZM14.4137 4.19561C16.4569 4.19561 18.4542 4.80149 20.1531 5.93663C21.8519 7.07177 23.176 8.68518 23.9579 10.5728C24.7398 12.4605 24.9444 14.5377 24.5458 16.5416C24.1472 18.5455 23.1633 20.3863 21.7185 21.831C20.2738 23.2758 18.4331 24.2597 16.4291 24.6583C14.4252 25.0569 12.348 24.8523 10.4604 24.0704C8.57271 23.2885 6.9593 21.9644 5.82416 20.2656C4.68902 18.5667 4.08314 16.5694 4.08314 14.5262C4.08588 11.7872 5.17515 9.16116 7.11192 7.22439C9.04869 5.28762 11.6747 4.19835 14.4137 4.19561ZM20.8135 38.5413C20.6678 38.6135 20.5044 38.6422 20.3429 38.6239C20.1813 38.6055 20.0285 38.541 19.9027 38.438L17.1031 36.1997C16.3411 35.586 15.3921 35.2513 14.4137 35.2513C13.4353 35.2513 12.4863 35.586 11.7243 36.1997L8.92646 38.438C8.80013 38.5395 8.64774 38.6032 8.48681 38.6218C8.32589 38.6405 8.16296 38.6134 8.01675 38.5436C7.87055 38.4739 7.74699 38.3643 7.6603 38.2274C7.5736 38.0905 7.52729 37.932 7.52667 37.77V26.4373C9.61683 27.6573 11.9936 28.3002 14.4137 28.3002C16.8339 28.3002 19.2106 27.6573 21.3008 26.4373V37.77C21.3027 37.9319 21.2577 38.0909 21.1712 38.2277C21.0848 38.3646 20.9605 38.4735 20.8135 38.5413Z" fill="white"/>
</svg>
