<svg width="42" height="37" viewBox="0 0 42 37" fill="none" xmlns="http://www.w3.org/2000/svg">
<path d="M39.8528 13.5124C39.0322 12.5667 38.0179 11.8084 36.8788 11.2888C35.7396 10.7692 34.5021 10.5004 33.25 10.5007H26.2693L26.8573 6.92891C27.0653 5.67112 26.8143 4.38045 26.15 3.2923C25.4857 2.20416 24.4524 1.39106 23.2386 1.0013C22.0248 0.611534 20.7113 0.671087 19.5377 1.16909C18.3641 1.6671 17.4086 2.57037 16.8455 3.71416L13.496 10.5007H8.75C6.43021 10.5034 4.20623 11.4262 2.56589 13.0665C0.925543 14.7069 0.00277875 16.9309 0 19.2507L0 28.0007C0.00277875 30.3205 0.925543 32.5444 2.56589 34.1848C4.20623 35.8251 6.43021 36.7479 8.75 36.7507H32.025C34.1311 36.742 36.1641 35.9777 37.7542 34.5967C39.3442 33.2157 40.3858 31.3098 40.6893 29.2257L41.923 20.4757C42.0968 19.2344 42.0018 17.9704 41.6447 16.769C41.2875 15.5677 40.6764 14.4571 39.8528 13.5124ZM3.5 28.0007V19.2507C3.5 17.8583 4.05312 16.5229 5.03769 15.5383C6.02226 14.5538 7.35761 14.0007 8.75 14.0007H12.25V33.2507H8.75C7.35761 33.2507 6.02226 32.6975 5.03769 31.713C4.05312 30.7284 3.5 29.393 3.5 28.0007ZM38.4493 19.9839L37.2138 28.7339C37.0331 29.9834 36.41 31.1265 35.4578 31.9554C34.5056 32.7843 33.2875 33.2439 32.025 33.2507H15.75V13.5352C15.9149 13.3915 16.0514 13.2182 16.1525 13.0242L19.9833 5.26291C20.1269 5.00379 20.33 4.78245 20.5758 4.61709C20.8217 4.45173 21.1033 4.34707 21.3974 4.31171C21.6916 4.27635 21.99 4.3113 22.268 4.41368C22.546 4.51607 22.7958 4.68296 22.9968 4.90066C23.1687 5.10059 23.2944 5.33601 23.3649 5.5901C23.4353 5.8442 23.4489 6.11073 23.4045 6.37066L22.4805 11.9707C22.4399 12.2209 22.4542 12.4769 22.5224 12.7211C22.5905 12.9652 22.7109 13.1917 22.8751 13.3847C23.0394 13.5778 23.2436 13.7328 23.4737 13.8392C23.7038 13.9455 23.9543 14.0006 24.2078 14.0007H33.25C34.0015 14.0006 34.7442 14.1618 35.428 14.4734C36.1117 14.7851 36.7207 15.2399 37.2136 15.8071C37.7065 16.3743 38.0718 17.0407 38.285 17.7613C38.4982 18.4819 38.5542 19.2398 38.4493 19.9839Z" fill="white"/>
</svg>
