<svg width="26" height="42" viewBox="0 0 26 42" fill="none" xmlns="http://www.w3.org/2000/svg">
<path d="M16.3815 7C17.805 7.00139 19.1698 7.5675 20.1764 8.57408C21.183 9.58066 21.7491 10.9455 21.7505 12.369C21.7505 12.8331 21.9349 13.2782 22.2631 13.6064C22.5912 13.9346 23.0364 14.119 23.5005 14.119C23.9646 14.119 24.4097 13.9346 24.7379 13.6064C25.0661 13.2782 25.2505 12.8331 25.2505 12.369V12.25C25.2505 12.2168 25.2505 12.187 25.2505 12.1538C25.1921 9.83978 24.2322 7.64012 22.5755 6.0236C20.9188 4.40708 18.6962 3.50154 16.3815 3.5H14.7505V1.75C14.7505 1.28587 14.5661 0.840752 14.2379 0.512563C13.9097 0.184374 13.4646 0 13.0005 0C12.5364 0 12.0912 0.184374 11.7631 0.512563C11.4349 0.840752 11.2505 1.28587 11.2505 1.75V3.5H9.61949C7.5148 3.50225 5.4795 4.25291 3.87738 5.61781C2.27526 6.98271 1.21075 8.87289 0.874131 10.9505C0.537507 13.0281 0.950707 15.1577 2.03987 16.9587C3.12904 18.7596 4.82318 20.1145 6.81949 20.7812L11.2505 22.26V35H9.61949C8.19597 34.9986 6.83115 34.4325 5.82457 33.4259C4.81799 32.4193 4.25188 31.0545 4.25049 29.631C4.25049 29.1669 4.06611 28.7218 3.73792 28.3936C3.40974 28.0654 2.96462 27.881 2.50049 27.881C2.03636 27.881 1.59124 28.0654 1.26305 28.3936C0.934863 28.7218 0.750488 29.1669 0.750488 29.631V29.75C0.750488 29.7833 0.750488 29.813 0.750488 29.8463C0.808892 32.1602 1.76875 34.3599 3.42548 35.9764C5.0822 37.5929 7.30478 38.4985 9.61949 38.5H11.2505V40.25C11.2505 40.7141 11.4349 41.1592 11.7631 41.4874C12.0912 41.8156 12.5364 42 13.0005 42C13.4646 42 13.9097 41.8156 14.2379 41.4874C14.5661 41.1592 14.7505 40.7141 14.7505 40.25V38.5H16.3815C18.4862 38.4978 20.5215 37.7471 22.1236 36.3822C23.7257 35.0173 24.7902 33.1271 25.1268 31.0495C25.4635 28.9719 25.0503 26.8423 23.9611 25.0413C22.8719 23.2404 21.1778 21.8855 19.1815 21.2188L14.7505 19.74V7H16.3815ZM18.079 24.5368C19.289 24.9395 20.3161 25.7597 20.9765 26.8507C21.6369 27.9416 21.8874 29.232 21.6832 30.4908C21.479 31.7496 20.8333 32.8946 19.8619 33.7208C18.8905 34.547 17.6567 35.0005 16.3815 35H14.7505V23.4272L18.079 24.5368ZM11.2505 18.5728L7.92549 17.4632C6.71578 17.0606 5.68883 16.2407 5.02842 15.1501C4.36802 14.0595 4.11725 12.7695 4.32102 11.5109C4.52478 10.2524 5.16976 9.10739 6.14054 8.2809C7.11132 7.45441 8.34454 7.00036 9.61949 7H11.2505V18.5728Z" fill="white"/>
</svg>
