<svg width="52" height="63" viewBox="0 0 52 63" fill="none" xmlns="http://www.w3.org/2000/svg">
<path fill-rule="evenodd" clip-rule="evenodd" d="M0.635091 23.372C1.69465 10.5177 12.4363 0.625 25.3343 0.625H26.666C39.5639 0.625 50.3056 10.5177 51.3651 23.372C51.9355 30.2928 49.7978 37.165 45.4019 42.5408L30.6235 60.6146C28.2339 63.537 23.7664 63.537 21.3769 60.6146L6.5982 42.5408C2.20244 37.165 0.0646127 30.2928 0.635091 23.372ZM26 12.1875C17.9113 12.1875 11.3542 18.7447 11.3542 26.8333C11.3542 34.9222 17.9113 41.4792 26 41.4792C34.0888 41.4792 40.6458 34.9222 40.6458 26.8333C40.6458 18.7447 34.0888 12.1875 26 12.1875Z" fill="#057F8B"/>
</svg>
